STARTFONT 2.1
FONT -Misc-buttfont-Medium-R-Normal--15-108-100-100-C-80-ISO8859-1
SIZE 15 100 100
FONTBOUNDINGBOX 8 15 0 -3
STARTPROPERTIES 24
FONTNAME_REGISTRY ""
FOUNDRY "Misc"
FAMILY_NAME "buttfont"
WEIGHT_NAME "Medium"
SLANT "R"
SETWIDTH_NAME "Normal"
ADD_STYLE_NAME ""
PIXEL_SIZE 15
POINT_SIZE 108
RESOLUTION_X 100
RESOLUTION_Y 100
SPACING "C"
AVERAGE_WIDTH 80
CHARSET_REGISTRY "ISO8859"
CHARSET_ENCODING "1"
CAP_HEIGHT 8
X_HEIGHT 6
FONT_VERSION "1.11"
WEIGHT 10
QUAD_WIDTH 8
DEFAULT_CHAR 0
FONT_DESCENT 3
FONT_ASCENT 12
_GBDFED_INFO "Edited with gbdfed 1.5."
ENDPROPERTIES
CHARS 273
STARTCHAR U+0000
ENCODING 0
SWIDTH 384 0
DWIDTH 8 0
BBX 8 15 0 -3
BITMAP
00
00
00
00
7E
42
42
42
42
42
42
7E
00
00
00
ENDCHAR
STARTCHAR U+2592
ENCODING 2
SWIDTH 384 0
DWIDTH 8 0
BBX 8 15 0 -3
BITMAP
55
AA
55
AA
55
AA
55
AA
55
AA
55
AA
55
AA
55
ENDCHAR
STARTCHAR U+00B0
ENCODING 7
SWIDTH 384 0
DWIDTH 8 0
BBX 8 15 0 -3
BITMAP
00
00
00
00
38
44
44
44
38
00
00
00
00
00
00
ENDCHAR
STARTCHAR U+2518
ENCODING 11
SWIDTH 384 0
DWIDTH 8 0
BBX 8 15 0 -3
BITMAP
08
08
08
08
08
08
08
08
F8
00
00
00
00
00
00
ENDCHAR
STARTCHAR U+2510
ENCODING 12
SWIDTH 384 0
DWIDTH 8 0
BBX 8 15 0 -3
BITMAP
00
00
00
00
00
00
00
00
F8
08
08
08
08
08
08
ENDCHAR
STARTCHAR U+250C
ENCODING 13
SWIDTH 384 0
DWIDTH 8 0
BBX 8 15 0 -3
BITMAP
00
00
00
00
00
00
00
00
0F
08
08
08
08
08
08
ENDCHAR
STARTCHAR U+2514
ENCODING 14
SWIDTH 384 0
DWIDTH 8 0
BBX 8 15 0 -3
BITMAP
08
08
08
08
08
08
08
08
0F
00
00
00
00
00
00
ENDCHAR
STARTCHAR U+253C
ENCODING 15
SWIDTH 384 0
DWIDTH 8 0
BBX 8 15 0 -3
BITMAP
08
08
08
08
08
08
08
08
FF
08
08
08
08
08
08
ENDCHAR
STARTCHAR U+2500
ENCODING 18
SWIDTH 384 0
DWIDTH 8 0
BBX 8 15 0 -3
BITMAP
00
00
00
00
00
00
00
00
FF
00
00
00
00
00
00
ENDCHAR
STARTCHAR U+251C
ENCODING 21
SWIDTH 384 0
DWIDTH 8 0
BBX 8 15 0 -3
BITMAP
08
08
08
08
08
08
08
08
0F
08
08
08
08
08
08
ENDCHAR
STARTCHAR U+2524
ENCODING 22
SWIDTH 384 0
DWIDTH 8 0
BBX 8 15 0 -3
BITMAP
08
08
08
08
08
08
08
08
F8
08
08
08
08
08
08
ENDCHAR
STARTCHAR U+2534
ENCODING 23
SWIDTH 384 0
DWIDTH 8 0
BBX 8 15 0 -3
BITMAP
08
08
08
08
08
08
08
08
FF
00
00
00
00
00
00
ENDCHAR
STARTCHAR U+252C
ENCODING 24
SWIDTH 384 0
DWIDTH 8 0
BBX 8 15 0 -3
BITMAP
00
00
00
00
00
00
00
00
FF
08
08
08
08
08
08
ENDCHAR
STARTCHAR U+2502
ENCODING 25
SWIDTH 384 0
DWIDTH 8 0
BBX 8 15 0 -3
BITMAP
08
08
08
08
08
08
08
08
08
08
08
08
08
08
08
ENDCHAR
STARTCHAR U+00A3
ENCODING 30
SWIDTH 384 0
DWIDTH 8 0
BBX 8 15 0 -3
BITMAP
00
00
00
00
0E
11
10
7C
10
10
39
46
00
00
00
ENDCHAR
STARTCHAR U+0020
ENCODING 32
SWIDTH 384 0
DWIDTH 8 0
BBX 8 15 0 -3
BITMAP
00
00
00
00
00
00
00
00
00
00
00
00
00
00
00
ENDCHAR
STARTCHAR U+0021
ENCODING 33
SWIDTH 384 0
DWIDTH 8 0
BBX 8 15 0 -3
BITMAP
00
00
00
10
10
10
10
10
00
00
10
10
00
00
00
ENDCHAR
STARTCHAR U+0022
ENCODING 34
SWIDTH 384 0
DWIDTH 8 0
BBX 8 15 0 -3
BITMAP
00
00
00
24
24
24
24
00
00
00
00
00
00
00
00
ENDCHAR
STARTCHAR U+0023
ENCODING 35
SWIDTH 384 0
DWIDTH 8 0
BBX 8 15 0 -3
BITMAP
00
00
00
00
24
24
7E
24
24
7E
24
24
00
00
00
ENDCHAR
STARTCHAR U+0024
ENCODING 36
SWIDTH 384 0
DWIDTH 8 0
BBX 8 15 0 -3
BITMAP
00
00
08
08
1E
20
20
1C
02
02
3C
08
08
00
00
ENDCHAR
STARTCHAR U+0025
ENCODING 37
SWIDTH 384 0
DWIDTH 8 0
BBX 8 15 0 -3
BITMAP
00
00
00
30
49
4A
34
08
16
29
49
06
00
00
00
ENDCHAR
STARTCHAR U+0026
ENCODING 38
SWIDTH 384 0
DWIDTH 8 0
BBX 8 15 0 -3
BITMAP
00
00
00
30
48
48
30
31
49
46
46
39
00
00
00
ENDCHAR
STARTCHAR U+0027
ENCODING 39
SWIDTH 384 0
DWIDTH 8 0
BBX 8 15 0 -3
BITMAP
00
00
00
10
10
10
10
00
00
00
00
00
00
00
00
ENDCHAR
STARTCHAR U+0028
ENCODING 40
SWIDTH 384 0
DWIDTH 8 0
BBX 8 15 0 -3
BITMAP
00
00
00
04
08
08
10
10
10
10
10
08
08
04
00
ENDCHAR
STARTCHAR U+0029
ENCODING 41
SWIDTH 384 0
DWIDTH 8 0
BBX 8 15 0 -3
BITMAP
00
00
00
20
10
10
08
08
08
08
08
10
10
20
00
ENDCHAR
STARTCHAR U+002A
ENCODING 42
SWIDTH 384 0
DWIDTH 8 0
BBX 8 15 0 -3
BITMAP
00
00
00
00
00
00
24
18
7E
18
24
00
00
00
00
ENDCHAR
STARTCHAR U+002B
ENCODING 43
SWIDTH 384 0
DWIDTH 8 0
BBX 8 15 0 -3
BITMAP
00
00
00
00
00
08
08
08
7F
08
08
08
00
00
00
ENDCHAR
STARTCHAR U+002C
ENCODING 44
SWIDTH 384 0
DWIDTH 8 0
BBX 8 15 0 -3
BITMAP
00
00
00
00
00
00
00
00
00
00
18
18
08
08
10
ENDCHAR
STARTCHAR U+002D
ENCODING 45
SWIDTH 384 0
DWIDTH 8 0
BBX 8 15 0 -3
BITMAP
00
00
00
00
00
00
00
00
7E
00
00
00
00
00
00
ENDCHAR
STARTCHAR U+002E
ENCODING 46
SWIDTH 384 0
DWIDTH 8 0
BBX 8 15 0 -3
BITMAP
00
00
00
00
00
00
00
00
00
00
18
18
00
00
00
ENDCHAR
STARTCHAR U+002F
ENCODING 47
SWIDTH 384 0
DWIDTH 8 0
BBX 8 15 0 -3
BITMAP
00
00
00
00
04
04
08
08
10
10
20
20
40
40
00
ENDCHAR
STARTCHAR U+0030
ENCODING 48
SWIDTH 384 0
DWIDTH 8 0
BBX 8 15 0 -3
BITMAP
00
00
00
00
3C
42
46
4A
52
62
42
3C
00
00
00
ENDCHAR
STARTCHAR U+0031
ENCODING 49
SWIDTH 384 0
DWIDTH 8 0
BBX 8 15 0 -3
BITMAP
00
00
00
00
08
18
28
08
08
08
08
3E
00
00
00
ENDCHAR
STARTCHAR U+0032
ENCODING 50
SWIDTH 384 0
DWIDTH 8 0
BBX 8 15 0 -3
BITMAP
00
00
00
00
3C
42
02
04
08
10
20
7E
00
00
00
ENDCHAR
STARTCHAR U+0033
ENCODING 51
SWIDTH 384 0
DWIDTH 8 0
BBX 8 15 0 -3
BITMAP
00
00
00
00
7E
04
08
1C
02
02
42
3C
00
00
00
ENDCHAR
STARTCHAR U+0034
ENCODING 52
SWIDTH 384 0
DWIDTH 8 0
BBX 8 15 0 -3
BITMAP
00
00
00
00
04
0C
14
24
44
7E
04
04
00
00
00
ENDCHAR
STARTCHAR U+0035
ENCODING 53
SWIDTH 384 0
DWIDTH 8 0
BBX 8 15 0 -3
BITMAP
00
00
00
00
7E
40
40
7C
02
02
42
3C
00
00
00
ENDCHAR
STARTCHAR U+0036
ENCODING 54
SWIDTH 384 0
DWIDTH 8 0
BBX 8 15 0 -3
BITMAP
00
00
00
00
18
20
40
7C
42
42
42
3C
00
00
00
ENDCHAR
STARTCHAR U+0037
ENCODING 55
SWIDTH 384 0
DWIDTH 8 0
BBX 8 15 0 -3
BITMAP
00
00
00
00
7E
02
04
04
08
08
10
10
00
00
00
ENDCHAR
STARTCHAR U+0038
ENCODING 56
SWIDTH 384 0
DWIDTH 8 0
BBX 8 15 0 -3
BITMAP
00
00
00
00
3C
42
42
3C
42
42
42
3C
00
00
00
ENDCHAR
STARTCHAR U+0039
ENCODING 57
SWIDTH 384 0
DWIDTH 8 0
BBX 8 15 0 -3
BITMAP
00
00
00
00
3C
42
42
42
3E
02
04
18
00
00
00
ENDCHAR
STARTCHAR U+003A
ENCODING 58
SWIDTH 384 0
DWIDTH 8 0
BBX 8 15 0 -3
BITMAP
00
00
00
00
00
18
18
00
00
00
18
18
00
00
00
ENDCHAR
STARTCHAR U+003B
ENCODING 59
SWIDTH 384 0
DWIDTH 8 0
BBX 8 15 0 -3
BITMAP
00
00
00
00
00
18
18
00
00
00
18
18
08
08
10
ENDCHAR
STARTCHAR U+003C
ENCODING 60
SWIDTH 384 0
DWIDTH 8 0
BBX 8 15 0 -3
BITMAP
00
00
00
00
00
04
08
10
20
10
08
04
00
00
00
ENDCHAR
STARTCHAR U+003D
ENCODING 61
SWIDTH 384 0
DWIDTH 8 0
BBX 8 15 0 -3
BITMAP
00
00
00
00
00
00
7E
00
00
7E
00
00
00
00
00
ENDCHAR
STARTCHAR U+003E
ENCODING 62
SWIDTH 384 0
DWIDTH 8 0
BBX 8 15 0 -3
BITMAP
00
00
00
00
00
20
10
08
04
08
10
20
00
00
00
ENDCHAR
STARTCHAR U+003F
ENCODING 63
SWIDTH 384 0
DWIDTH 8 0
BBX 8 15 0 -3
BITMAP
00
00
00
3C
42
04
08
10
00
00
10
10
00
00
00
ENDCHAR
STARTCHAR U+0040
ENCODING 64
SWIDTH 384 0
DWIDTH 8 0
BBX 8 15 0 -3
BITMAP
00
00
00
1C
22
41
4F
51
51
53
4D
40
20
1F
00
ENDCHAR
STARTCHAR U+0041
ENCODING 65
SWIDTH 384 0
DWIDTH 8 0
BBX 8 15 0 -3
BITMAP
00
00
00
00
18
24
42
42
7E
42
42
42
00
00
00
ENDCHAR
STARTCHAR U+0042
ENCODING 66
SWIDTH 384 0
DWIDTH 8 0
BBX 8 15 0 -3
BITMAP
00
00
00
00
7C
42
42
7C
42
42
42
7C
00
00
00
ENDCHAR
STARTCHAR U+0043
ENCODING 67
SWIDTH 384 0
DWIDTH 8 0
BBX 8 15 0 -3
BITMAP
00
00
00
00
1E
20
40
40
40
40
20
1E
00
00
00
ENDCHAR
STARTCHAR U+0044
ENCODING 68
SWIDTH 384 0
DWIDTH 8 0
BBX 8 15 0 -3
BITMAP
00
00
00
00
78
44
42
42
42
42
44
78
00
00
00
ENDCHAR
STARTCHAR U+0045
ENCODING 69
SWIDTH 384 0
DWIDTH 8 0
BBX 8 15 0 -3
BITMAP
00
00
00
00
7E
40
40
7C
40
40
40
7E
00
00
00
ENDCHAR
STARTCHAR U+0046
ENCODING 70
SWIDTH 384 0
DWIDTH 8 0
BBX 8 15 0 -3
BITMAP
00
00
00
00
7E
40
40
7C
40
40
40
40
00
00
00
ENDCHAR
STARTCHAR U+0047
ENCODING 71
SWIDTH 384 0
DWIDTH 8 0
BBX 8 15 0 -3
BITMAP
00
00
00
00
1E
20
40
40
46
42
22
1E
00
00
00
ENDCHAR
STARTCHAR U+0048
ENCODING 72
SWIDTH 384 0
DWIDTH 8 0
BBX 8 15 0 -3
BITMAP
00
00
00
00
42
42
42
7E
42
42
42
42
00
00
00
ENDCHAR
STARTCHAR U+0049
ENCODING 73
SWIDTH 384 0
DWIDTH 8 0
BBX 8 15 0 -3
BITMAP
00
00
00
00
3E
08
08
08
08
08
08
3E
00
00
00
ENDCHAR
STARTCHAR U+004A
ENCODING 74
SWIDTH 384 0
DWIDTH 8 0
BBX 8 15 0 -3
BITMAP
00
00
00
00
02
02
02
02
02
42
42
3C
00
00
00
ENDCHAR
STARTCHAR U+004B
ENCODING 75
SWIDTH 384 0
DWIDTH 8 0
BBX 8 15 0 -3
BITMAP
00
00
00
00
42
44
48
70
70
48
44
42
00
00
00
ENDCHAR
STARTCHAR U+004C
ENCODING 76
SWIDTH 384 0
DWIDTH 8 0
BBX 8 15 0 -3
BITMAP
00
00
00
00
40
40
40
40
40
40
40
7E
00
00
00
ENDCHAR
STARTCHAR U+004D
ENCODING 77
SWIDTH 384 0
DWIDTH 8 0
BBX 8 15 0 -3
BITMAP
00
00
00
00
41
63
55
49
49
41
41
41
00
00
00
ENDCHAR
STARTCHAR U+004E
ENCODING 78
SWIDTH 384 0
DWIDTH 8 0
BBX 8 15 0 -3
BITMAP
00
00
00
00
42
62
52
4A
46
42
42
42
00
00
00
ENDCHAR
STARTCHAR U+004F
ENCODING 79
SWIDTH 384 0
DWIDTH 8 0
BBX 8 15 0 -3
BITMAP
00
00
00
00
3C
42
42
42
42
42
42
3C
00
00
00
ENDCHAR
STARTCHAR U+0050
ENCODING 80
SWIDTH 384 0
DWIDTH 8 0
BBX 8 15 0 -3
BITMAP
00
00
00
00
7C
42
42
42
7C
40
40
40
00
00
00
ENDCHAR
STARTCHAR U+0051
ENCODING 81
SWIDTH 384 0
DWIDTH 8 0
BBX 8 15 0 -3
BITMAP
00
00
00
00
3C
42
42
42
42
42
42
3C
04
02
00
ENDCHAR
STARTCHAR U+0052
ENCODING 82
SWIDTH 384 0
DWIDTH 8 0
BBX 8 15 0 -3
BITMAP
00
00
00
00
7C
42
42
42
7C
48
44
42
00
00
00
ENDCHAR
STARTCHAR U+0053
ENCODING 83
SWIDTH 384 0
DWIDTH 8 0
BBX 8 15 0 -3
BITMAP
00
00
00
00
3E
40
40
30
0C
02
02
7C
00
00
00
ENDCHAR
STARTCHAR U+0054
ENCODING 84
SWIDTH 384 0
DWIDTH 8 0
BBX 8 15 0 -3
BITMAP
00
00
00
00
7F
08
08
08
08
08
08
08
00
00
00
ENDCHAR
STARTCHAR U+0055
ENCODING 85
SWIDTH 384 0
DWIDTH 8 0
BBX 8 15 0 -3
BITMAP
00
00
00
00
42
42
42
42
42
42
42
3C
00
00
00
ENDCHAR
STARTCHAR U+0056
ENCODING 86
SWIDTH 384 0
DWIDTH 8 0
BBX 8 15 0 -3
BITMAP
00
00
00
00
42
42
42
42
24
24
18
18
00
00
00
ENDCHAR
STARTCHAR U+0057
ENCODING 87
SWIDTH 384 0
DWIDTH 8 0
BBX 8 15 0 -3
BITMAP
00
00
00
00
41
41
41
41
49
49
55
63
00
00
00
ENDCHAR
STARTCHAR U+0058
ENCODING 88
SWIDTH 384 0
DWIDTH 8 0
BBX 8 15 0 -3
BITMAP
00
00
00
00
42
42
24
18
18
24
42
42
00
00
00
ENDCHAR
STARTCHAR U+0059
ENCODING 89
SWIDTH 384 0
DWIDTH 8 0
BBX 8 15 0 -3
BITMAP
00
00
00
00
41
41
22
14
08
08
08
08
00
00
00
ENDCHAR
STARTCHAR U+005A
ENCODING 90
SWIDTH 384 0
DWIDTH 8 0
BBX 8 15 0 -3
BITMAP
00
00
00
00
7F
02
04
08
10
20
40
7F
00
00
00
ENDCHAR
STARTCHAR U+005B
ENCODING 91
SWIDTH 384 0
DWIDTH 8 0
BBX 8 15 0 -3
BITMAP
00
00
00
1E
10
10
10
10
10
10
10
10
10
1E
00
ENDCHAR
STARTCHAR U+005C
ENCODING 92
SWIDTH 384 0
DWIDTH 8 0
BBX 8 15 0 -3
BITMAP
00
00
00
00
40
40
20
20
10
10
08
08
04
04
00
ENDCHAR
STARTCHAR U+005D
ENCODING 93
SWIDTH 384 0
DWIDTH 8 0
BBX 8 15 0 -3
BITMAP
00
00
00
78
08
08
08
08
08
08
08
08
08
78
00
ENDCHAR
STARTCHAR U+005E
ENCODING 94
SWIDTH 384 0
DWIDTH 8 0
BBX 8 15 0 -3
BITMAP
00
00
00
00
10
28
44
00
00
00
00
00
00
00
00
ENDCHAR
STARTCHAR U+005F
ENCODING 95
SWIDTH 384 0
DWIDTH 8 0
BBX 8 15 0 -3
BITMAP
00
00
00
00
00
00
00
00
00
00
00
00
00
FF
00
ENDCHAR
STARTCHAR U+0060
ENCODING 96
SWIDTH 384 0
DWIDTH 8 0
BBX 8 15 0 -3
BITMAP
00
00
00
10
08
04
00
00
00
00
00
00
00
00
00
ENDCHAR
STARTCHAR U+0061
ENCODING 97
SWIDTH 384 0
DWIDTH 8 0
BBX 8 15 0 -3
BITMAP
00
00
00
00
00
00
3C
02
3E
42
42
3E
00
00
00
ENDCHAR
STARTCHAR U+0062
ENCODING 98
SWIDTH 384 0
DWIDTH 8 0
BBX 8 15 0 -3
BITMAP
00
00
00
40
40
40
5C
62
42
42
42
7C
00
00
00
ENDCHAR
STARTCHAR U+0063
ENCODING 99
SWIDTH 384 0
DWIDTH 8 0
BBX 8 15 0 -3
BITMAP
00
00
00
00
00
00
3C
42
40
40
42
3C
00
00
00
ENDCHAR
STARTCHAR U+0064
ENCODING 100
SWIDTH 384 0
DWIDTH 8 0
BBX 8 15 0 -3
BITMAP
00
00
00
02
02
02
3E
42
42
42
46
3A
00
00
00
ENDCHAR
STARTCHAR U+0065
ENCODING 101
SWIDTH 384 0
DWIDTH 8 0
BBX 8 15 0 -3
BITMAP
00
00
00
00
00
00
3C
42
7E
40
40
3E
00
00
00
ENDCHAR
STARTCHAR U+0066
ENCODING 102
SWIDTH 384 0
DWIDTH 8 0
BBX 8 15 0 -3
BITMAP
00
00
00
0E
10
10
7E
10
10
10
10
10
00
00
00
ENDCHAR
STARTCHAR U+0067
ENCODING 103
SWIDTH 384 0
DWIDTH 8 0
BBX 8 15 0 -3
BITMAP
00
00
00
00
00
00
3E
42
42
42
42
3E
02
02
3C
ENDCHAR
STARTCHAR U+0068
ENCODING 104
SWIDTH 384 0
DWIDTH 8 0
BBX 8 15 0 -3
BITMAP
00
00
00
40
40
40
5C
62
42
42
42
42
00
00
00
ENDCHAR
STARTCHAR U+0069
ENCODING 105
SWIDTH 384 0
DWIDTH 8 0
BBX 8 15 0 -3
BITMAP
00
00
00
08
08
00
38
08
08
08
08
3E
00
00
00
ENDCHAR
STARTCHAR U+006A
ENCODING 106
SWIDTH 384 0
DWIDTH 8 0
BBX 8 15 0 -3
BITMAP
00
00
00
04
04
00
1C
04
04
04
04
04
04
04
38
ENDCHAR
STARTCHAR U+006B
ENCODING 107
SWIDTH 384 0
DWIDTH 8 0
BBX 8 15 0 -3
BITMAP
00
00
00
40
40
40
44
48
50
68
44
42
00
00
00
ENDCHAR
STARTCHAR U+006c
ENCODING 108
SWIDTH 384 0
DWIDTH 8 0
BBX 8 15 0 -3
BITMAP
00
00
00
70
10
10
10
10
10
10
10
0E
00
00
00
ENDCHAR
STARTCHAR U+006d
ENCODING 109
SWIDTH 384 0
DWIDTH 8 0
BBX 8 15 0 -3
BITMAP
00
00
00
00
00
00
76
49
49
49
49
49
00
00
00
ENDCHAR
STARTCHAR U+006e
ENCODING 110
SWIDTH 384 0
DWIDTH 8 0
BBX 8 15 0 -3
BITMAP
00
00
00
00
00
00
5C
62
42
42
42
42
00
00
00
ENDCHAR
STARTCHAR U+006F
ENCODING 111
SWIDTH 384 0
DWIDTH 8 0
BBX 8 15 0 -3
BITMAP
00
00
00
00
00
00
3C
42
42
42
42
3C
00
00
00
ENDCHAR
STARTCHAR U+0070
ENCODING 112
SWIDTH 384 0
DWIDTH 8 0
BBX 8 15 0 -3
BITMAP
00
00
00
00
00
00
5C
62
42
42
42
7C
40
40
40
ENDCHAR
STARTCHAR U+0071
ENCODING 113
SWIDTH 384 0
DWIDTH 8 0
BBX 8 15 0 -3
BITMAP
00
00
00
00
00
00
3E
42
42
42
46
3A
02
02
02
ENDCHAR
STARTCHAR U+0072
ENCODING 114
SWIDTH 384 0
DWIDTH 8 0
BBX 8 15 0 -3
BITMAP
00
00
00
00
00
00
5C
62
40
40
40
40
00
00
00
ENDCHAR
STARTCHAR U+0073
ENCODING 115
SWIDTH 384 0
DWIDTH 8 0
BBX 8 15 0 -3
BITMAP
00
00
00
00
00
00
3E
40
30
0C
02
7C
00
00
00
ENDCHAR
STARTCHAR U+0074
ENCODING 116
SWIDTH 384 0
DWIDTH 8 0
BBX 8 15 0 -3
BITMAP
00
00
00
00
10
10
7E
10
10
10
10
0E
00
00
00
ENDCHAR
STARTCHAR U+0075
ENCODING 117
SWIDTH 384 0
DWIDTH 8 0
BBX 8 15 0 -3
BITMAP
00
00
00
00
00
00
42
42
42
42
46
3A
00
00
00
ENDCHAR
STARTCHAR U+0076
ENCODING 118
SWIDTH 384 0
DWIDTH 8 0
BBX 8 15 0 -3
BITMAP
00
00
00
00
00
00
42
42
24
24
18
18
00
00
00
ENDCHAR
STARTCHAR U+0077
ENCODING 119
SWIDTH 384 0
DWIDTH 8 0
BBX 8 15 0 -3
BITMAP
00
00
00
00
00
00
41
49
49
49
49
36
00
00
00
ENDCHAR
STARTCHAR U+0078
ENCODING 120
SWIDTH 384 0
DWIDTH 8 0
BBX 8 15 0 -3
BITMAP
00
00
00
00
00
00
42
24
18
18
24
42
00
00
00
ENDCHAR
STARTCHAR U+0079
ENCODING 121
SWIDTH 384 0
DWIDTH 8 0
BBX 8 15 0 -3
BITMAP
00
00
00
00
00
00
42
42
42
42
46
3A
02
02
3C
ENDCHAR
STARTCHAR U+007A
ENCODING 122
SWIDTH 384 0
DWIDTH 8 0
BBX 8 15 0 -3
BITMAP
00
00
00
00
00
00
7E
04
08
10
20
7E
00
00
00
ENDCHAR
STARTCHAR U+007B
ENCODING 123
SWIDTH 384 0
DWIDTH 8 0
BBX 8 15 0 -3
BITMAP
00
00
00
06
08
08
08
08
30
08
08
08
08
06
00
ENDCHAR
STARTCHAR U+007C
ENCODING 124
SWIDTH 384 0
DWIDTH 8 0
BBX 8 15 0 -3
BITMAP
00
00
08
08
08
08
08
08
08
08
08
08
08
08
00
ENDCHAR
STARTCHAR U+007D
ENCODING 125
SWIDTH 384 0
DWIDTH 8 0
BBX 8 15 0 -3
BITMAP
00
00
00
60
10
10
10
10
0C
10
10
10
10
60
00
ENDCHAR
STARTCHAR U+007E
ENCODING 126
SWIDTH 384 0
DWIDTH 8 0
BBX 8 15 0 -3
BITMAP
00
00
00
00
31
49
46
00
00
00
00
00
00
00
00
ENDCHAR
STARTCHAR U+00A0
ENCODING 160
SWIDTH 384 0
DWIDTH 8 0
BBX 8 15 0 -3
BITMAP
00
00
00
00
00
00
00
00
00
00
00
00
00
00
00
ENDCHAR
STARTCHAR U+00A1
ENCODING 161
SWIDTH 384 0
DWIDTH 8 0
BBX 8 15 0 -3
BITMAP
00
00
00
00
00
00
10
10
00
00
10
10
10
10
10
ENDCHAR
STARTCHAR U+00A2
ENCODING 162
SWIDTH 384 0
DWIDTH 8 0
BBX 8 15 0 -3
BITMAP
00
00
00
08
08
3E
49
48
48
49
3E
08
08
00
00
ENDCHAR
STARTCHAR U+00A3
ENCODING 163
SWIDTH 384 0
DWIDTH 8 0
BBX 8 15 0 -3
BITMAP
00
00
00
00
0E
11
10
7C
10
10
39
46
00
00
00
ENDCHAR
STARTCHAR U+00A4
ENCODING 164
SWIDTH 384 0
DWIDTH 8 0
BBX 8 15 0 -3
BITMAP
00
00
00
00
00
42
3C
24
24
3C
42
00
00
00
00
ENDCHAR
STARTCHAR U+00A5
ENCODING 165
SWIDTH 384 0
DWIDTH 8 0
BBX 8 15 0 -3
BITMAP
00
00
00
00
41
22
14
3E
08
3E
08
08
00
00
00
ENDCHAR
STARTCHAR U+00A6
ENCODING 166
SWIDTH 384 0
DWIDTH 8 0
BBX 8 15 0 -3
BITMAP
00
00
00
00
08
08
08
08
00
00
08
08
08
08
00
ENDCHAR
STARTCHAR U+00A8
ENCODING 168
SWIDTH 384 0
DWIDTH 8 0
BBX 8 15 0 -3
BITMAP
00
24
24
00
00
00
00
00
00
00
00
00
00
00
00
ENDCHAR
STARTCHAR U+00A9
ENCODING 169
SWIDTH 384 0
DWIDTH 8 0
BBX 8 15 0 -3
BITMAP
00
00
00
00
1C
22
4D
51
51
4D
22
1C
00
00
00
ENDCHAR
STARTCHAR U+00AB
ENCODING 171
SWIDTH 384 0
DWIDTH 8 0
BBX 8 15 0 -3
BITMAP
00
00
00
00
00
09
12
24
48
24
12
09
00
00
00
ENDCHAR
STARTCHAR U+00AD
ENCODING 173
SWIDTH 384 0
DWIDTH 8 0
BBX 8 15 0 -3
BITMAP
00
00
00
00
00
00
00
00
7E
00
00
00
00
00
00
ENDCHAR
STARTCHAR U+00B0
ENCODING 176
SWIDTH 384 0
DWIDTH 8 0
BBX 8 15 0 -3
BITMAP
00
00
00
00
38
44
44
44
38
00
00
00
00
00
00
ENDCHAR
STARTCHAR U+00B8
ENCODING 184
SWIDTH 384 0
DWIDTH 8 0
BBX 8 15 0 -3
BITMAP
00
00
00
00
00
00
00
00
00
00
00
00
08
08
30
ENDCHAR
STARTCHAR U+00BB
ENCODING 187
SWIDTH 384 0
DWIDTH 8 0
BBX 8 15 0 -3
BITMAP
00
00
00
00
00
48
24
12
09
12
24
48
00
00
00
ENDCHAR
STARTCHAR U+00BF
ENCODING 191
SWIDTH 384 0
DWIDTH 8 0
BBX 8 15 0 -3
BITMAP
00
00
00
00
00
00
08
08
00
00
08
10
20
22
1C
ENDCHAR
STARTCHAR U+00C0
ENCODING 192
SWIDTH 384 0
DWIDTH 8 0
BBX 8 15 0 -3
BITMAP
00
20
10
00
18
18
24
24
24
7E
42
42
00
00
00
ENDCHAR
STARTCHAR U+00C1
ENCODING 193
SWIDTH 384 0
DWIDTH 8 0
BBX 8 15 0 -3
BITMAP
00
04
08
00
18
18
24
24
24
7E
42
42
00
00
00
ENDCHAR
STARTCHAR U+00C2
ENCODING 194
SWIDTH 384 0
DWIDTH 8 0
BBX 8 15 0 -3
BITMAP
00
18
24
00
18
18
24
24
24
7E
42
42
00
00
00
ENDCHAR
STARTCHAR U+00C3
ENCODING 195
SWIDTH 384 0
DWIDTH 8 0
BBX 8 15 0 -3
BITMAP
00
32
4C
00
18
18
24
24
24
7E
42
42
00
00
00
ENDCHAR
STARTCHAR U+00C4
ENCODING 196
SWIDTH 384 0
DWIDTH 8 0
BBX 8 15 0 -3
BITMAP
00
24
24
00
18
18
24
24
24
7E
42
42
00
00
00
ENDCHAR
STARTCHAR U+00C5
ENCODING 197
SWIDTH 384 0
DWIDTH 8 0
BBX 8 15 0 -3
BITMAP
00
18
24
24
18
18
24
24
24
7E
42
42
00
00
00
ENDCHAR
STARTCHAR U+00C6
ENCODING 198
SWIDTH 384 0
DWIDTH 8 0
BBX 8 15 0 -3
BITMAP
00
00
00
00
1F
18
28
2E
28
78
48
4F
00
00
00
ENDCHAR
STARTCHAR U+00C7
ENCODING 199
SWIDTH 384 0
DWIDTH 8 0
BBX 8 15 0 -3
BITMAP
00
00
00
00
1E
20
40
40
40
40
20
1E
08
08
30
ENDCHAR
STARTCHAR U+00C8
ENCODING 200
SWIDTH 384 0
DWIDTH 8 0
BBX 8 15 0 -3
BITMAP
00
20
10
00
7E
40
40
7C
40
40
40
7E
00
00
00
ENDCHAR
STARTCHAR U+00C9
ENCODING 201
SWIDTH 384 0
DWIDTH 8 0
BBX 8 15 0 -3
BITMAP
00
04
08
00
7E
40
40
7C
40
40
40
7E
00
00
00
ENDCHAR
STARTCHAR U+00CA
ENCODING 202
SWIDTH 384 0
DWIDTH 8 0
BBX 8 15 0 -3
BITMAP
00
18
24
00
7E
40
40
7C
40
40
40
7E
00
00
00
ENDCHAR
STARTCHAR U+00CB
ENCODING 203
SWIDTH 384 0
DWIDTH 8 0
BBX 8 15 0 -3
BITMAP
00
24
24
00
7E
40
40
7C
40
40
40
7E
00
00
00
ENDCHAR
STARTCHAR U+00CC
ENCODING 204
SWIDTH 384 0
DWIDTH 8 0
BBX 8 15 0 -3
BITMAP
00
10
08
00
3E
08
08
08
08
08
08
3E
00
00
00
ENDCHAR
STARTCHAR U+00CD
ENCODING 205
SWIDTH 384 0
DWIDTH 8 0
BBX 8 15 0 -3
BITMAP
00
04
08
00
3E
08
08
08
08
08
08
3E
00
00
00
ENDCHAR
STARTCHAR U+00CE
ENCODING 206
SWIDTH 384 0
DWIDTH 8 0
BBX 8 15 0 -3
BITMAP
00
08
14
00
3E
08
08
08
08
08
08
3E
00
00
00
ENDCHAR
STARTCHAR U+00CF
ENCODING 207
SWIDTH 384 0
DWIDTH 8 0
BBX 8 15 0 -3
BITMAP
00
14
14
00
3E
08
08
08
08
08
08
3E
00
00
00
ENDCHAR
STARTCHAR U+00D0
ENCODING 208
SWIDTH 384 0
DWIDTH 8 0
BBX 8 15 0 -3
BITMAP
00
00
00
00
3C
22
21
79
21
21
22
3C
00
00
00
ENDCHAR
STARTCHAR U+00D1
ENCODING 209
SWIDTH 384 0
DWIDTH 8 0
BBX 8 15 0 -3
BITMAP
00
32
4C
00
42
62
52
4A
46
42
42
42
00
00
00
ENDCHAR
STARTCHAR U+00D2
ENCODING 210
SWIDTH 384 0
DWIDTH 8 0
BBX 8 15 0 -3
BITMAP
00
10
08
00
1C
22
41
41
41
41
22
1C
00
00
00
ENDCHAR
STARTCHAR U+00D3
ENCODING 211
SWIDTH 384 0
DWIDTH 8 0
BBX 8 15 0 -3
BITMAP
00
04
08
00
1C
22
41
41
41
41
22
1C
00
00
00
ENDCHAR
STARTCHAR U+00D4
ENCODING 212
SWIDTH 384 0
DWIDTH 8 0
BBX 8 15 0 -3
BITMAP
00
08
14
00
1C
22
41
41
41
41
22
1C
00
00
00
ENDCHAR
STARTCHAR U+00D5
ENCODING 213
SWIDTH 384 0
DWIDTH 8 0
BBX 8 15 0 -3
BITMAP
00
19
26
00
1C
22
41
41
41
41
22
1C
00
00
00
ENDCHAR
STARTCHAR U+00D6
ENCODING 214
SWIDTH 384 0
DWIDTH 8 0
BBX 8 15 0 -3
BITMAP
00
22
22
00
1C
22
41
41
41
41
22
1C
00
00
00
ENDCHAR
STARTCHAR U+00D7
ENCODING 215
SWIDTH 384 0
DWIDTH 8 0
BBX 8 15 0 -3
BITMAP
00
00
00
00
00
00
22
14
08
14
22
00
00
00
00
ENDCHAR
STARTCHAR U+00D8
ENCODING 216
SWIDTH 384 0
DWIDTH 8 0
BBX 8 15 0 -3
BITMAP
00
00
00
01
1E
22
45
49
49
51
22
3C
40
00
00
ENDCHAR
STARTCHAR U+00D9
ENCODING 217
SWIDTH 384 0
DWIDTH 8 0
BBX 8 15 0 -3
BITMAP
00
20
10
00
42
42
42
42
42
42
42
3C
00
00
00
ENDCHAR
STARTCHAR U+00DA
ENCODING 218
SWIDTH 384 0
DWIDTH 8 0
BBX 8 15 0 -3
BITMAP
00
04
08
00
42
42
42
42
42
42
42
3C
00
00
00
ENDCHAR
STARTCHAR U+00DB
ENCODING 219
SWIDTH 384 0
DWIDTH 8 0
BBX 8 15 0 -3
BITMAP
00
18
24
00
42
42
42
42
42
42
42
3C
00
00
00
ENDCHAR
STARTCHAR U+00DC
ENCODING 220
SWIDTH 384 0
DWIDTH 8 0
BBX 8 15 0 -3
BITMAP
00
24
24
00
42
42
42
42
42
42
42
3C
00
00
00
ENDCHAR
STARTCHAR U+00DD
ENCODING 221
SWIDTH 384 0
DWIDTH 8 0
BBX 8 15 0 -3
BITMAP
00
22
22
00
41
41
22
14
08
08
08
08
00
00
00
ENDCHAR
STARTCHAR U+00DE
ENCODING 222
SWIDTH 384 0
DWIDTH 8 0
BBX 8 15 0 -3
BITMAP
00
00
00
00
40
7C
42
42
42
42
7C
40
00
00
00
ENDCHAR
STARTCHAR U+00DF
ENCODING 223
SWIDTH 384 0
DWIDTH 8 0
BBX 8 15 0 -3
BITMAP
00
00
00
00
3C
42
44
4C
42
42
42
4C
00
00
00
ENDCHAR
STARTCHAR U+00E0
ENCODING 224
SWIDTH 384 0
DWIDTH 8 0
BBX 8 15 0 -3
BITMAP
00
00
00
20
10
00
3C
02
3E
42
42
3E
00
00
00
ENDCHAR
STARTCHAR U+00E1
ENCODING 225
SWIDTH 384 0
DWIDTH 8 0
BBX 8 15 0 -3
BITMAP
00
00
00
04
08
00
3C
02
3E
42
42
3E
00
00
00
ENDCHAR
STARTCHAR U+00E2
ENCODING 226
SWIDTH 384 0
DWIDTH 8 0
BBX 8 15 0 -3
BITMAP
00
00
00
18
24
00
3C
02
3E
42
42
3E
00
00
00
ENDCHAR
STARTCHAR U+00E3
ENCODING 227
SWIDTH 384 0
DWIDTH 8 0
BBX 8 15 0 -3
BITMAP
00
00
00
32
4C
00
3C
02
3E
42
42
3E
00
00
00
ENDCHAR
STARTCHAR U+00E4
ENCODING 228
SWIDTH 384 0
DWIDTH 8 0
BBX 8 15 0 -3
BITMAP
00
00
00
24
24
00
3C
02
3E
42
42
3E
00
00
00
ENDCHAR
STARTCHAR U+00E5
ENCODING 229
SWIDTH 384 0
DWIDTH 8 0
BBX 8 15 0 -3
BITMAP
00
18
24
24
18
00
3C
02
3E
42
42
3E
00
00
00
ENDCHAR
STARTCHAR U+00E6
ENCODING 230
SWIDTH 384 0
DWIDTH 8 0
BBX 8 15 0 -3
BITMAP
00
00
00
00
00
00
36
09
3F
48
48
37
00
00
00
ENDCHAR
STARTCHAR U+00E7
ENCODING 231
SWIDTH 384 0
DWIDTH 8 0
BBX 8 15 0 -3
BITMAP
00
00
00
00
00
00
3C
42
40
40
42
3C
08
08
30
ENDCHAR
STARTCHAR U+00E8
ENCODING 232
SWIDTH 384 0
DWIDTH 8 0
BBX 8 15 0 -3
BITMAP
00
00
00
20
10
00
3C
42
7E
40
40
3E
00
00
00
ENDCHAR
STARTCHAR U+00E9
ENCODING 233
SWIDTH 384 0
DWIDTH 8 0
BBX 8 15 0 -3
BITMAP
00
00
00
04
08
00
3C
42
7E
40
40
3E
00
00
00
ENDCHAR
STARTCHAR U+00EA
ENCODING 234
SWIDTH 384 0
DWIDTH 8 0
BBX 8 15 0 -3
BITMAP
00
00
00
18
24
00
3C
42
7E
40
40
3E
00
00
00
ENDCHAR
STARTCHAR U+00EB
ENCODING 235
SWIDTH 384 0
DWIDTH 8 0
BBX 8 15 0 -3
BITMAP
00
00
00
24
24
00
3C
42
7E
40
40
3E
00
00
00
ENDCHAR
STARTCHAR U+00EC
ENCODING 236
SWIDTH 384 0
DWIDTH 8 0
BBX 8 15 0 -3
BITMAP
00
00
00
20
10
00
38
08
08
08
08
3E
00
00
00
ENDCHAR
STARTCHAR U+00ED
ENCODING 237
SWIDTH 384 0
DWIDTH 8 0
BBX 8 15 0 -3
BITMAP
00
00
00
04
08
00
38
08
08
08
08
3E
00
00
00
ENDCHAR
STARTCHAR U+00EE
ENCODING 238
SWIDTH 384 0
DWIDTH 8 0
BBX 8 15 0 -3
BITMAP
00
00
00
18
24
00
38
08
08
08
08
3E
00
00
00
ENDCHAR
STARTCHAR U+00EF
ENCODING 239
SWIDTH 384 0
DWIDTH 8 0
BBX 8 15 0 -3
BITMAP
00
00
00
24
24
00
38
08
08
08
08
3E
00
00
00
ENDCHAR
STARTCHAR U+00F0
ENCODING 240
SWIDTH 384 0
DWIDTH 8 0
BBX 8 15 0 -3
BITMAP
00
00
12
0C
38
04
3C
42
42
42
42
3C
00
00
00
ENDCHAR
STARTCHAR U+00F1
ENCODING 241
SWIDTH 384 0
DWIDTH 8 0
BBX 8 15 0 -3
BITMAP
00
00
00
32
4C
00
7C
42
42
42
42
42
00
00
00
ENDCHAR
STARTCHAR U+00F2
ENCODING 242
SWIDTH 384 0
DWIDTH 8 0
BBX 8 15 0 -3
BITMAP
00
00
00
20
10
00
3C
42
42
42
42
3C
00
00
00
ENDCHAR
STARTCHAR U+00F3
ENCODING 243
SWIDTH 384 0
DWIDTH 8 0
BBX 8 15 0 -3
BITMAP
00
00
00
04
08
00
3C
42
42
42
42
3C
00
00
00
ENDCHAR
STARTCHAR U+00F4
ENCODING 244
SWIDTH 384 0
DWIDTH 8 0
BBX 8 15 0 -3
BITMAP
00
00
00
18
24
00
3C
42
42
42
42
3C
00
00
00
ENDCHAR
STARTCHAR U+00F5
ENCODING 245
SWIDTH 384 0
DWIDTH 8 0
BBX 8 15 0 -3
BITMAP
00
00
00
32
4C
00
3C
42
42
42
42
3C
00
00
00
ENDCHAR
STARTCHAR U+00F6
ENCODING 246
SWIDTH 384 0
DWIDTH 8 0
BBX 8 15 0 -3
BITMAP
00
00
00
24
24
00
3C
42
42
42
42
3C
00
00
00
ENDCHAR
STARTCHAR U+00F7
ENCODING 247
SWIDTH 384 0
DWIDTH 8 0
BBX 8 15 0 -3
BITMAP
00
00
00
00
00
18
18
00
7E
00
18
18
00
00
00
ENDCHAR
STARTCHAR U+00F8
ENCODING 248
SWIDTH 384 0
DWIDTH 8 0
BBX 8 15 0 -3
BITMAP
00
00
00
00
00
02
3C
46
4A
52
62
3C
40
00
00
ENDCHAR
STARTCHAR U+00F9
ENCODING 249
SWIDTH 384 0
DWIDTH 8 0
BBX 8 15 0 -3
BITMAP
00
00
00
20
10
00
42
42
42
42
42
3E
00
00
00
ENDCHAR
STARTCHAR U+00FA
ENCODING 250
SWIDTH 384 0
DWIDTH 8 0
BBX 8 15 0 -3
BITMAP
00
00
00
04
08
00
42
42
42
42
42
3E
00
00
00
ENDCHAR
STARTCHAR U+00FB
ENCODING 251
SWIDTH 384 0
DWIDTH 8 0
BBX 8 15 0 -3
BITMAP
00
00
00
18
24
00
42
42
42
42
42
3E
00
00
00
ENDCHAR
STARTCHAR U+00FC
ENCODING 252
SWIDTH 384 0
DWIDTH 8 0
BBX 8 15 0 -3
BITMAP
00
00
00
24
24
00
42
42
42
42
42
3E
00
00
00
ENDCHAR
STARTCHAR U+00FD
ENCODING 253
SWIDTH 384 0
DWIDTH 8 0
BBX 8 15 0 -3
BITMAP
00
00
00
04
08
00
42
42
42
42
42
3E
02
02
3C
ENDCHAR
STARTCHAR U+00FE
ENCODING 254
SWIDTH 384 0
DWIDTH 8 0
BBX 8 15 0 -3
BITMAP
00
00
00
40
40
40
7C
42
42
42
42
7C
40
40
40
ENDCHAR
STARTCHAR U+00FF
ENCODING 255
SWIDTH 384 0
DWIDTH 8 0
BBX 8 15 0 -3
BITMAP
00
00
00
24
24
00
42
42
42
42
42
3E
02
02
3C
ENDCHAR
STARTCHAR char256
ENCODING 256
SWIDTH 384 0
DWIDTH 8 0
BBX 8 15 0 -3
BITMAP
00
00
66
00
24
66
00
3C
42
5A
00
00
00
00
00
ENDCHAR
STARTCHAR char9600
ENCODING 9600
SWIDTH 384 0
DWIDTH 8 0
BBX 8 15 0 -3
BITMAP
FF
FF
FF
FF
FF
FF
00
00
00
00
00
00
00
00
00
ENDCHAR
STARTCHAR char9608
ENCODING 9601
SWIDTH 384 0
DWIDTH 8 0
BBX 8 15 0 -3
BITMAP
00
00
00
7E
7E
7E
7E
7E
7E
7E
7E
00
7E
7E
00
ENDCHAR
STARTCHAR char9608
ENCODING 9602
SWIDTH 384 0
DWIDTH 8 0
BBX 8 15 0 -3
BITMAP
00
00
00
7E
7E
7E
7E
7E
7E
7E
00
7E
7E
7E
00
ENDCHAR
STARTCHAR char9608
ENCODING 9603
SWIDTH 384 0
DWIDTH 8 0
BBX 8 15 0 -3
BITMAP
00
00
00
7E
7E
7E
7E
7E
7E
00
7E
7E
7E
7E
00
ENDCHAR
STARTCHAR char9608
ENCODING 9604
SWIDTH 384 0
DWIDTH 8 0
BBX 8 15 0 -3
BITMAP
00
00
00
7E
7E
7E
7E
7E
00
7E
7E
7E
7E
7E
00
ENDCHAR
STARTCHAR char9608
ENCODING 9605
SWIDTH 384 0
DWIDTH 8 0
BBX 8 15 0 -3
BITMAP
00
00
00
7E
7E
7E
7E
00
7E
7E
7E
7E
7E
7E
00
ENDCHAR
STARTCHAR char9608
ENCODING 9606
SWIDTH 384 0
DWIDTH 8 0
BBX 8 15 0 -3
BITMAP
00
00
00
7E
7E
7E
00
7E
7E
7E
7E
7E
7E
7E
00
ENDCHAR
STARTCHAR char9608
ENCODING 9607
SWIDTH 384 0
DWIDTH 8 0
BBX 8 15 0 -3
BITMAP
00
00
00
7E
7E
00
7E
7E
7E
7E
7E
7E
7E
7E
00
ENDCHAR
STARTCHAR char9608
ENCODING 9608
SWIDTH 384 0
DWIDTH 8 0
BBX 8 15 0 -3
BITMAP
00
00
00
FF
FF
FF
FF
FF
FF
FF
FF
FF
FF
FF
00
ENDCHAR
STARTCHAR char9608
ENCODING 9609
SWIDTH 384 0
DWIDTH 8 0
BBX 8 15 0 -3
BITMAP
00
00
00
FE
FE
FE
FE
FE
FE
FE
FE
FE
FE
FE
00
ENDCHAR
STARTCHAR char9608
ENCODING 9610
SWIDTH 384 0
DWIDTH 8 0
BBX 8 15 0 -3
BITMAP
00
00
00
FC
FC
FC
FC
FC
FC
FC
FC
FC
FC
FC
00
ENDCHAR
STARTCHAR char9608
ENCODING 9611
SWIDTH 384 0
DWIDTH 8 0
BBX 8 15 0 -3
BITMAP
00
00
00
F8
F8
F8
F8
F8
F8
F8
F8
F8
F8
F8
00
ENDCHAR
STARTCHAR char9608
ENCODING 9612
SWIDTH 384 0
DWIDTH 8 0
BBX 8 15 0 -3
BITMAP
00
00
00
F0
F0
F0
F0
F0
F0
F0
F0
F0
F0
F0
00
ENDCHAR
STARTCHAR char9608
ENCODING 9613
SWIDTH 384 0
DWIDTH 8 0
BBX 8 15 0 -3
BITMAP
00
00
00
E0
E0
E0
E0
E0
E0
E0
E0
E0
E0
E0
00
ENDCHAR
STARTCHAR char9608
ENCODING 9614
SWIDTH 384 0
DWIDTH 8 0
BBX 8 15 0 -3
BITMAP
00
00
00
C0
C0
C0
C0
C0
C0
C0
C0
C0
C0
C0
00
ENDCHAR
STARTCHAR char9608
ENCODING 9615
SWIDTH 384 0
DWIDTH 8 0
BBX 8 15 0 -3
BITMAP
00
00
00
80
80
80
80
80
80
80
80
80
80
80
00
ENDCHAR
STARTCHAR U+005D
ENCODING 9616
SWIDTH 384 0
DWIDTH 8 0
BBX 8 15 0 -3
BITMAP
00
00
00
C0
40
40
40
60
20
60
40
40
40
C0
00
ENDCHAR
STARTCHAR U+005B
ENCODING 9617
SWIDTH 384 0
DWIDTH 8 0
BBX 8 15 0 -3
BITMAP
00
00
00
03
02
02
02
02
02
02
02
02
02
03
00
ENDCHAR
STARTCHAR U+005B
ENCODING 9618
SWIDTH 384 0
DWIDTH 8 0
BBX 8 15 0 -3
BITMAP
00
00
00
03
02
02
02
02
02
22
22
72
22
03
00
ENDCHAR
STARTCHAR U+005B
ENCODING 9619
SWIDTH 384 0
DWIDTH 8 0
BBX 8 15 0 -3
BITMAP
00
00
00
03
22
72
22
22
02
02
02
02
02
03
00
ENDCHAR
STARTCHAR char9608
ENCODING 9623
SWIDTH 384 0
DWIDTH 8 0
BBX 8 15 0 -3
BITMAP
00
00
00
FF
00
00
00
00
00
00
00
00
00
FF
00
ENDCHAR
STARTCHAR char9608
ENCODING 9624
SWIDTH 384 0
DWIDTH 8 0
BBX 8 15 0 -3
BITMAP
00
00
00
FF
00
FF
FF
FF
FF
FF
FF
FF
00
FF
00
ENDCHAR
STARTCHAR char9608
ENCODING 9625
SWIDTH 384 0
DWIDTH 8 0
BBX 8 15 0 -3
BITMAP
00
00
00
FF
00
FE
FE
FE
FE
FE
FE
FE
00
FF
00
ENDCHAR
STARTCHAR char9608
ENCODING 9626
SWIDTH 384 0
DWIDTH 8 0
BBX 8 15 0 -3
BITMAP
00
00
00
FF
00
FC
FC
FC
FC
FC
FC
FC
00
FF
00
ENDCHAR
STARTCHAR char9608
ENCODING 9627
SWIDTH 384 0
DWIDTH 8 0
BBX 8 15 0 -3
BITMAP
00
00
00
FF
00
F8
F8
F8
F8
F8
F8
F8
00
FF
00
ENDCHAR
STARTCHAR char9608
ENCODING 9628
SWIDTH 384 0
DWIDTH 8 0
BBX 8 15 0 -3
BITMAP
00
00
00
FF
00
F0
F0
F0
F0
F0
F0
F0
00
FF
00
ENDCHAR
STARTCHAR char9608
ENCODING 9629
SWIDTH 384 0
DWIDTH 8 0
BBX 8 15 0 -3
BITMAP
00
00
00
FF
00
E0
E0
E0
E0
E0
E0
E0
00
FF
00
ENDCHAR
STARTCHAR char9608
ENCODING 9630
SWIDTH 384 0
DWIDTH 8 0
BBX 8 15 0 -3
BITMAP
00
00
00
FF
00
C0
C0
C0
C0
C0
C0
C0
00
FF
00
ENDCHAR
STARTCHAR char9608
ENCODING 9631
SWIDTH 384 0
DWIDTH 8 0
BBX 8 15 0 -3
BITMAP
00
00
00
FF
00
80
80
80
80
80
80
80
00
FF
00
ENDCHAR
STARTCHAR char9608
ENCODING 9648
SWIDTH 384 0
DWIDTH 8 0
BBX 8 15 0 -3
BITMAP
00
00
00
7E
7E
7E
7E
7E
7E
7E
7E
00
7E
7E
00
ENDCHAR
STARTCHAR char9608
ENCODING 9649
SWIDTH 384 0
DWIDTH 8 0
BBX 8 15 0 -3
BITMAP
00
00
00
7E
7E
7E
7E
7E
7E
7E
00
7E
7E
7E
00
ENDCHAR
STARTCHAR char9608
ENCODING 9650
SWIDTH 384 0
DWIDTH 8 0
BBX 8 15 0 -3
BITMAP
00
00
00
7E
7E
7E
7E
7E
7E
00
7E
7E
7E
7E
00
ENDCHAR
STARTCHAR char9608
ENCODING 9651
SWIDTH 384 0
DWIDTH 8 0
BBX 8 15 0 -3
BITMAP
00
00
00
7E
7E
7E
7E
7E
00
7E
7E
7E
7E
7E
00
ENDCHAR
STARTCHAR char9608
ENCODING 9652
SWIDTH 384 0
DWIDTH 8 0
BBX 8 15 0 -3
BITMAP
00
00
00
7E
7E
7E
7E
00
7E
7E
7E
7E
7E
7E
00
ENDCHAR
STARTCHAR char9608
ENCODING 9653
SWIDTH 384 0
DWIDTH 8 0
BBX 8 15 0 -3
BITMAP
00
00
00
7E
7E
7E
00
7E
7E
7E
7E
7E
7E
7E
00
ENDCHAR
STARTCHAR char9608
ENCODING 9654
SWIDTH 384 0
DWIDTH 8 0
BBX 8 15 0 -3
BITMAP
00
00
00
7E
7E
00
7E
7E
7E
7E
7E
7E
7E
7E
00
ENDCHAR
STARTCHAR char9608
ENCODING 9655
SWIDTH 384 0
DWIDTH 8 0
BBX 8 15 0 -3
BITMAP
00
00
00
7E
7E
7E
7E
7E
7E
7E
7E
7E
7E
7E
00
ENDCHAR
STARTCHAR char11044
ENCODING 9899
SWIDTH 384 0
DWIDTH 8 0
BBX 8 15 0 -3
BITMAP
00
00
00
00
00
00
18
3C
3C
18
00
00
00
00
00
ENDCHAR
STARTCHAR char11044
ENCODING 11044
SWIDTH 384 0
DWIDTH 8 0
BBX 8 15 0 -3
BITMAP
00
00
00
00
00
18
3C
7E
7E
3C
18
00
00
00
00
ENDCHAR
STARTCHAR char33318
ENCODING 33318
SWIDTH 384 0
DWIDTH 8 0
BBX 8 15 0 -3
BITMAP
00
00
00
00
00
00
00
18
18
00
00
00
00
00
00
ENDCHAR
STARTCHAR WHITE MEDIUM STAR
ENCODING 45648
SWIDTH 384 0
DWIDTH 8 0
BBX 8 15 0 -3
BITMAP
00
00
00
00
00
00
20
20
F8
50
70
88
00
00
00
ENDCHAR
STARTCHAR uni2B5F
ENCODING 45663
SWIDTH 384 0
DWIDTH 8 0
BBX 8 15 0 -3
BITMAP
00
00
00
A8
00
A8
00
A8
00
A8
00
A8
00
00
00
ENDCHAR
STARTCHAR uni2B60
ENCODING 45664
SWIDTH 384 0
DWIDTH 8 0
BBX 8 15 0 -3
BITMAP
00
00
00
60
64
6E
64
64
68
70
60
60
00
00
00
ENDCHAR
STARTCHAR uni2B61
ENCODING 45665
SWIDTH 384 0
DWIDTH 8 0
BBX 8 15 0 -3
BITMAP
00
00
00
00
00
60
60
78
00
68
78
58
00
00
00
ENDCHAR
STARTCHAR uni2B62
ENCODING 45666
SWIDTH 384 0
DWIDTH 8 0
BBX 8 15 0 -3
BITMAP
00
00
00
00
00
78
80
98
98
80
98
90
60
00
00
ENDCHAR
STARTCHAR uni2B63
ENCODING 45667
SWIDTH 384 0
DWIDTH 8 0
BBX 8 15 0 -3
BITMAP
00
00
00
00
00
F8
04
98
90
90
90
90
60
00
00
ENDCHAR
STARTCHAR uni2B64
ENCODING 45668
SWIDTH 384 0
DWIDTH 8 0
BBX 8 15 0 -3
BITMAP
00
00
00
00
00
30
48
48
FC
CC
FC
78
00
00
00
ENDCHAR
STARTCHAR uni2B65
ENCODING 45669
SWIDTH 384 0
DWIDTH 8 0
BBX 8 15 0 -3
BITMAP
00
00
00
00
00
D6
82
38
BA
38
82
D6
00
00
00
ENDCHAR
STARTCHAR uni2B66
ENCODING 45670
SWIDTH 384 0
DWIDTH 8 0
BBX 8 15 0 -3
BITMAP
00
00
00
00
00
AA
00
FE
FE
FE
00
AA
00
00
00
ENDCHAR
STARTCHAR uni2B67
ENCODING 45671
SWIDTH 384 0
DWIDTH 8 0
BBX 8 15 0 -3
BITMAP
00
00
00
00
00
7C
EE
EE
E2
FE
FE
7C
00
00
00
ENDCHAR
STARTCHAR uni2B68
ENCODING 45672
SWIDTH 384 0
DWIDTH 8 0
BBX 8 15 0 -3
BITMAP
00
00
00
00
00
FE
82
BB
BB
BB
82
FE
00
00
00
ENDCHAR
STARTCHAR uni2B69
ENCODING 45673
SWIDTH 384 0
DWIDTH 8 0
BBX 8 15 0 -3
BITMAP
00
00
00
00
00
FE
82
83
83
83
82
FE
00
00
00
ENDCHAR
STARTCHAR uni2B6A
ENCODING 45674
SWIDTH 384 0
DWIDTH 8 0
BBX 8 15 0 -3
BITMAP
00
00
00
00
00
FE
82
A3
A3
A3
82
FE
00
00
00
ENDCHAR
STARTCHAR uni2B6B
ENCODING 45675
SWIDTH 384 0
DWIDTH 8 0
BBX 8 15 0 -3
BITMAP
00
00
00
00
00
FE
82
B3
B3
B3
82
FE
00
00
00
ENDCHAR
STARTCHAR uni2B6C
ENCODING 45676
SWIDTH 384 0
DWIDTH 8 0
BBX 8 15 0 -3
BITMAP
00
00
00
00
00
00
F8
00
20
20
F8
20
20
00
00
ENDCHAR
STARTCHAR uni2B6D
ENCODING 45677
SWIDTH 384 0
DWIDTH 8 0
BBX 8 15 0 -3
BITMAP
00
00
00
00
00
FE
AA
D6
BA
FE
FE
FE
00
00
00
ENDCHAR
STARTCHAR uni2B6E
ENCODING 45678
SWIDTH 384 0
DWIDTH 8 0
BBX 8 15 0 -3
BITMAP
00
00
00
00
00
FE
BA
D6
EE
FE
FE
FE
00
00
00
ENDCHAR
STARTCHAR uni2B6F
ENCODING 45679
SWIDTH 384 0
DWIDTH 8 0
BBX 8 15 0 -3
BITMAP
00
00
00
00
00
00
00
00
A8
50
A8
00
00
00
00
ENDCHAR
STARTCHAR uni2B70
ENCODING 45680
SWIDTH 384 0
DWIDTH 8 0
BBX 8 15 0 -3
BITMAP
00
00
00
00
00
00
00
00
A8
00
A8
00
00
00
00
ENDCHAR
STARTCHAR uni2B71
ENCODING 45681
SWIDTH 384 0
DWIDTH 8 0
BBX 8 15 0 -3
BITMAP
00
00
00
00
00
00
00
00
F8
F8
F8
00
00
00
00
ENDCHAR
STARTCHAR uni2B80
ENCODING 45696
SWIDTH 384 0
DWIDTH 8 0
BBX 8 15 0 -3
BITMAP
00
00
00
80
C0
E0
F0
F8
FC
F8
F0
E0
C0
80
00
ENDCHAR
STARTCHAR uni2B81
ENCODING 45697
SWIDTH 384 0
DWIDTH 8 0
BBX 8 15 0 -3
BITMAP
00
00
00
80
40
20
10
08
04
08
10
20
40
80
00
ENDCHAR
STARTCHAR uni2B82
ENCODING 45698
SWIDTH 384 0
DWIDTH 8 0
BBX 8 15 0 -3
BITMAP
00
00
00
04
0C
1C
3C
7C
FC
7C
3C
1C
0C
04
00
ENDCHAR
STARTCHAR uni2B83
ENCODING 45699
SWIDTH 384 0
DWIDTH 8 0
BBX 8 15 0 -3
BITMAP
00
00
00
04
08
10
20
40
80
40
20
10
08
04
00
ENDCHAR
STARTCHAR char11150
ENCODING 45710
SWIDTH 384 0
DWIDTH 8 0
BBX 8 15 0 -3
BITMAP
00
00
00
1C
7F
6B
6B
41
41
63
77
77
7F
00
00
ENDCHAR
STARTCHAR char11151
ENCODING 45711
SWIDTH 384 0
DWIDTH 8 0
BBX 8 15 0 -3
BITMAP
00
00
00
1C
7F
41
5D
5D
5D
5D
5D
41
7F
00
00
ENDCHAR
STARTCHAR char11152
ENCODING 45712
SWIDTH 384 0
DWIDTH 8 0
BBX 8 15 0 -3
BITMAP
00
00
00
1C
7F
41
41
41
41
41
41
41
7F
00
00
ENDCHAR
STARTCHAR char11153
ENCODING 45713
SWIDTH 384 0
DWIDTH 8 0
BBX 8 15 0 -3
BITMAP
00
00
00
1C
7F
41
41
41
5D
5D
5D
41
7F
00
00
ENDCHAR
STARTCHAR char11154
ENCODING 45714
SWIDTH 384 0
DWIDTH 8 0
BBX 8 15 0 -3
BITMAP
00
00
00
1C
7F
7B
77
67
41
73
77
6F
7F
00
00
ENDCHAR
STARTCHAR char11155
ENCODING 45715
SWIDTH 384 0
DWIDTH 8 0
BBX 8 15 0 -3
BITMAP
00
00
00
00
20
30
38
3C
3E
3C
38
30
20
00
00
ENDCHAR
STARTCHAR char11156
ENCODING 45716
SWIDTH 384 0
DWIDTH 8 0
BBX 8 15 0 -3
BITMAP
00
00
00
00
33
33
33
33
33
33
33
33
00
00
00
ENDCHAR
STARTCHAR char11157
ENCODING 45717
SWIDTH 384 0
DWIDTH 8 0
BBX 8 15 0 -3
BITMAP
00
00
00
00
3F
3F
21
21
21
21
63
63
00
00
00
ENDCHAR
STARTCHAR char11158
ENCODING 45718
SWIDTH 384 0
DWIDTH 8 0
BBX 8 15 0 -3
BITMAP
00
00
00
00
1C
36
77
77
71
7F
3E
1C
00
00
00
ENDCHAR
STARTCHAR char11159
ENCODING 45719
SWIDTH 384 0
DWIDTH 8 0
BBX 8 15 0 -3
BITMAP
00
00
00
08
08
1C
1C
1C
36
36
77
63
41
00
00
ENDCHAR
STARTCHAR char11160
ENCODING 45720
SWIDTH 384 0
DWIDTH 8 0
BBX 8 15 0 -3
BITMAP
00
00
00
00
F7
F7
F7
F0
F7
F7
F7
F7
00
00
00
ENDCHAR
STARTCHAR char11161
ENCODING 45721
SWIDTH 384 0
DWIDTH 8 0
BBX 8 15 0 -3
BITMAP
00
00
00
00
EF
EF
EF
0F
EF
EF
EF
EF
00
00
00
ENDCHAR
STARTCHAR char11162
ENCODING 45722
SWIDTH 384 0
DWIDTH 8 0
BBX 8 15 0 -3
BITMAP
00
00
00
00
FF
FF
FF
FF
00
F7
F7
F7
00
00
00
ENDCHAR
STARTCHAR char11163
ENCODING 45723
SWIDTH 384 0
DWIDTH 8 0
BBX 8 15 0 -3
BITMAP
00
00
00
00
FC
FD
FD
FD
FD
FD
01
3F
00
00
00
ENDCHAR
STARTCHAR char11164
ENCODING 45724
SWIDTH 384 0
DWIDTH 8 0
BBX 8 15 0 -3
BITMAP
00
00
00
3C
42
81
81
81
A5
E7
66
24
00
00
00
ENDCHAR
STARTCHAR char11165
ENCODING 45725
SWIDTH 384 0
DWIDTH 8 0
BBX 8 15 0 -3
BITMAP
00
00
00
00
08
98
58
A8
D0
E8
34
1A
08
00
00
ENDCHAR
STARTCHAR char11166
ENCODING 45726
SWIDTH 384 0
DWIDTH 8 0
BBX 8 15 0 -3
BITMAP
00
00
00
00
09
1A
38
F8
FB
F8
38
1A
09
00
00
ENDCHAR
STARTCHAR char11167
ENCODING 45727
SWIDTH 384 0
DWIDTH 8 0
BBX 8 15 0 -3
BITMAP
00
00
00
00
08
18
38
F8
F8
F8
38
18
08
00
00
ENDCHAR
STARTCHAR char11168
ENCODING 45728
SWIDTH 384 0
DWIDTH 8 0
BBX 8 15 0 -3
BITMAP
00
00
00
00
00
00
36
7F
7F
3E
1C
08
00
00
00
ENDCHAR
ENDFONT
